<svg width="32" height="32" viewBox="0 0 32 32" fill="none" xmlns="http://www.w3.org/2000/svg">
<path d="M16 32C24.8366 32 32 24.8366 32 16C32 7.16344 24.8366 0 16 0C7.16344 0 0 7.16344 0 16C0 24.8366 7.16344 32 16 32Z" fill="#8247E5"/>
<path d="M21.09 12.24C20.72 12.02 20.24 12.02 19.84 12.24L16.96 13.91L15 15L12.13 16.67C11.76 16.89 11.28 16.89 10.88 16.67L8.58 15.37C8.21 15.15 7.96 14.75 7.96 14.31V11.74C7.96 11.3 8.18 10.91 8.59 10.69L10.84 9.42C11.21 9.2 11.69 9.2 12.09 9.42L14.34 10.69C14.71 10.9 14.97 11.3 14.97 11.74V13.41L16.93 12.28V10.61C16.93 10.17 16.71 9.78 16.3 9.56L12.13 7.16C11.76 6.94 11.28 6.94 10.88 7.16L6.64 9.56C6.22 9.78 6 10.18 6 10.61V15.44C6 15.88 6.22 16.27 6.63 16.49L10.87 18.89C11.24 19.11 11.72 19.11 12.12 18.89L15 17.25L16.96 16.12L19.84 14.49C20.21 14.27 20.69 14.27 21.09 14.49L23.34 15.76C23.71 15.98 23.97 16.38 23.97 16.81V19.39C23.97 19.83 23.75 20.22 23.34 20.44L21.09 21.75C20.72 21.97 20.24 21.97 19.84 21.75L17.59 20.48C17.22 20.26 16.96 19.86 16.96 19.43V17.76L15 18.89V20.56C15 21 15.22 21.39 15.63 21.61L19.87 24.01C20.24 24.23 20.72 24.23 21.12 24.01L25.36 21.61C25.73 21.39 25.99 20.99 25.99 20.56V15.73C25.99 15.29 25.77 14.9 25.36 14.68L21.09 12.24Z" fill="white"/>
</svg>
